<?xml version="1.0" encoding="utf-8"?>
<!-- Generator: Adobe Illustrator 16.0.0, SVG Export Plug-In . SVG Version: 6.00 Build 0)  -->
<!DOCTYPE svg PUBLIC "-//W3C//DTD SVG 1.1//EN" "http://www.w3.org/Graphics/SVG/1.1/DTD/svg11.dtd">
<svg version="1.1" id="Capa_1" xmlns="http://www.w3.org/2000/svg" xmlns:xlink="http://www.w3.org/1999/xlink" x="0px" y="0px"
	 width="200px" height="200px" viewBox="0 0 200 200" enable-background="new 0 0 200 200" xml:space="preserve">
<path fill="#CACCD9" d="M196.331,182.21l-50.01-50.012c10.622-13.665,16.965-30.835,16.965-49.479
	C163.286,38.138,127.127,2,82.546,2C37.966,2,1.817,38.148,1.827,82.719c-0.01,44.571,36.139,80.729,80.729,80.709
	c18.644,0,35.814-6.332,49.48-16.944l50.011,50.01L196.331,182.21z M82.546,148.291c-36.157,0.008-65.58-29.414-65.58-65.572
	c0-36.167,29.423-65.601,65.58-65.601c36.148,0,65.582,29.433,65.582,65.601C148.128,118.877,118.694,148.291,82.546,148.291z"/>
</svg>
