<?xml version="1.0" encoding="utf-8"?>
<!-- Generator: Adobe Illustrator 16.0.0, SVG Export Plug-In . SVG Version: 6.00 Build 0)  -->
<!DOCTYPE svg PUBLIC "-//W3C//DTD SVG 1.1//EN" "http://www.w3.org/Graphics/SVG/1.1/DTD/svg11.dtd">
<svg version="1.1" id="Layer_1" xmlns="http://www.w3.org/2000/svg" xmlns:xlink="http://www.w3.org/1999/xlink" x="0px" y="0px"
	 width="200px" height="200px" viewBox="0 0 200 200" enable-background="new 0 0 200 200" xml:space="preserve">
<path fill="#007EA0" d="M198.11,99.14c0,54.188-43.926,98.109-98.109,98.109c-54.183,0-98.109-43.921-98.109-98.109
	c0-54.183,43.927-98.109,98.109-98.109C154.185,1.03,198.11,44.957,198.11,99.14z"/>
<g>
	<path fill="#FFFFFF" d="M99.015,44.707c-30.015,0-54.434,24.419-54.434,54.434c0,30.015,24.419,54.434,54.434,54.434
		s54.434-24.419,54.434-54.434C153.448,69.125,129.029,44.707,99.015,44.707z M99.015,143.677
		c-24.558,0-44.537-19.979-44.537-44.536s19.979-44.537,44.537-44.537s44.537,19.979,44.537,44.537S123.572,143.677,99.015,143.677z
		"/>
	<path fill="#FFFFFF" d="M99.014,67.8c-3.638,0-6.597,2.961-6.597,6.601c0,3.637,2.959,6.595,6.597,6.595
		c3.637,0,6.596-2.958,6.596-6.595C105.61,70.761,102.651,67.8,99.014,67.8z"/>
	<path fill="#FFFFFF" d="M99.015,90.893c-2.733,0-4.948,2.216-4.948,4.949v29.691c0,2.733,2.215,4.949,4.948,4.949
		c2.732,0,4.948-2.216,4.948-4.949V95.841C103.963,93.108,101.747,90.893,99.015,90.893z"/>
</g>
</svg>
