<?xml version="1.0" encoding="utf-8"?>
<!-- Generator: Adobe Illustrator 16.0.0, SVG Export Plug-In . SVG Version: 6.00 Build 0)  -->
<!DOCTYPE svg PUBLIC "-//W3C//DTD SVG 1.1//EN" "http://www.w3.org/Graphics/SVG/1.1/DTD/svg11.dtd">
<svg version="1.1" id="Layer_1" xmlns="http://www.w3.org/2000/svg" xmlns:xlink="http://www.w3.org/1999/xlink" x="0px" y="0px"
	 width="200px" height="200px" viewBox="0 0 200 200" enable-background="new 0 0 200 200" xml:space="preserve">
<path fill="#007EA0" d="M198.11,99.14c0,54.188-43.926,98.109-98.109,98.109c-54.183,0-98.109-43.921-98.109-98.109
	c0-54.183,43.927-98.109,98.109-98.109C154.185,1.03,198.11,44.957,198.11,99.14z"/>
<path fill="#FFFFFF" d="M119.943,98.579c4.261-4.75,6.879-11.002,6.879-17.869c0-14.78-12.025-26.806-26.807-26.806
	c-14.785,0-26.809,12.026-26.809,26.806c0,14.784,12.024,26.807,26.809,26.807c5.209,0,10.064-1.521,14.179-4.102
	c14.581,5.493,24.614,18.833,25.891,34.263h-80.14c0.865-10.393,5.74-20.074,13.665-26.981c1.398-1.214,1.542-3.331,0.326-4.727
	c-1.213-1.396-3.33-1.541-4.729-0.324c-10.238,8.919-16.103,21.812-16.103,35.381c0,1.853,1.503,3.35,3.351,3.35h87.121
	c1.852,0,3.349-1.497,3.349-3.35C146.925,122.641,136.271,106.229,119.943,98.579z M79.911,80.71
	c0-11.089,9.015-20.104,20.104-20.104c11.086,0,20.101,9.015,20.101,20.104s-9.015,20.104-20.101,20.104
	C88.926,100.814,79.911,91.799,79.911,80.71z"/>
</svg>
