<?xml version="1.0" encoding="utf-8"?>
<!-- Generator: Adobe Illustrator 16.0.0, SVG Export Plug-In . SVG Version: 6.00 Build 0)  -->
<!DOCTYPE svg PUBLIC "-//W3C//DTD SVG 1.1//EN" "http://www.w3.org/Graphics/SVG/1.1/DTD/svg11.dtd">
<svg version="1.1" id="Layer_1" xmlns="http://www.w3.org/2000/svg" xmlns:xlink="http://www.w3.org/1999/xlink" x="0px" y="0px"
	 width="200px" height="200px" viewBox="0 0 200 200" enable-background="new 0 0 200 200" xml:space="preserve">
<path fill="#007EA0" d="M198.11,99.14c0,54.188-43.926,98.109-98.109,98.109c-54.183,0-98.109-43.921-98.109-98.109
	c0-54.183,43.927-98.109,98.109-98.109C154.185,1.03,198.11,44.957,198.11,99.14z"/>
<g>
	<g>
		<g>
			<path fill="#FFFFFF" d="M150.928,110.879l-5.884-31.94c-1.388-7.562-7.971-13.047-15.635-13.047h-10.804
				c-0.739,0-1.446,0.266-2.002,0.748l-6.215,5.373H87.638l-6.213-5.373c-0.556-0.482-1.267-0.748-2-0.748H68.623
				c-7.67,0-14.248,5.485-15.639,13.047l-5.882,31.94c-1.795,9.751,4.511,19.143,14.204,21.13c6.799,1.397,13.677-1.137,17.95-6.617
				l6.718-8.612h26.079l6.721,8.612c4.25,5.446,11.109,8.023,17.952,6.617C146.392,130.021,152.729,120.648,150.928,110.879z
				 M135.489,126.017c-4.502,0.925-9.061-0.758-11.891-4.389l-7.636-9.79c-0.581-0.743-1.471-1.179-2.415-1.179H84.477
				c-0.942,0-1.832,0.436-2.411,1.179l-7.635,9.79c-2.831,3.631-7.392,5.313-11.891,4.389c-6.424-1.319-10.615-7.55-9.419-14.029
				L59,80.048c0.858-4.657,4.902-8.039,9.621-8.039h9.662l6.214,5.375c0.556,0.482,1.267,0.746,2.002,0.746h25.032
				c0.734,0,1.447-0.264,1.997-0.746l6.219-5.375h9.663c4.713,0,8.761,3.382,9.617,8.039l5.88,31.939
				C146.102,118.46,141.916,124.692,135.489,126.017z"/>
		</g>
	</g>
	<g>
		<g>
			<path fill="#FFFFFF" d="M80.816,91.352h-4.431v-4.433c0-1.689-1.37-3.06-3.06-3.06s-3.06,1.37-3.06,3.06v4.433h-4.436
				c-1.688,0-3.061,1.368-3.061,3.058s1.373,3.06,3.061,3.06h4.436v4.433c0,1.69,1.37,3.058,3.06,3.058s3.06-1.367,3.06-3.058
				v-4.433h4.434c1.689,0,3.06-1.368,3.06-3.058C83.876,92.719,82.509,91.352,80.816,91.352z"/>
		</g>
	</g>
	<g>
		<g>
			<path fill="#FFFFFF" d="M125.808,82.789c-6.411,0-11.625,5.212-11.625,11.623c0,6.405,5.214,11.621,11.625,11.621
				c6.405,0,11.62-5.215,11.62-11.621C137.428,88.001,132.213,82.789,125.808,82.789z M125.808,99.912
				c-3.035,0-5.504-2.467-5.504-5.503c0-3.033,2.469-5.502,5.504-5.502c3.031,0,5.501,2.47,5.501,5.502
				C131.309,97.445,128.839,99.912,125.808,99.912z"/>
		</g>
	</g>
</g>
</svg>
