<?xml version="1.0" encoding="UTF-8" standalone="no"?>
<!-- Generator: Adobe Illustrator 16.0.0, SVG Export Plug-In . SVG Version: 6.00 Build 0)  -->

<svg
   xmlns:dc="http://purl.org/dc/elements/1.1/"
   xmlns:cc="http://creativecommons.org/ns#"
   xmlns:rdf="http://www.w3.org/1999/02/22-rdf-syntax-ns#"
   xmlns:svg="http://www.w3.org/2000/svg"
   xmlns="http://www.w3.org/2000/svg"
   xmlns:sodipodi="http://sodipodi.sourceforge.net/DTD/sodipodi-0.dtd"
   xmlns:inkscape="http://www.inkscape.org/namespaces/inkscape"
   version="1.1"
   id="Layer_1"
   x="0px"
   y="0px"
   width="200px"
   height="200px"
   viewBox="0 0 200 200"
   enable-background="new 0 0 200 200"
   xml:space="preserve"
   sodipodi:docname="no_likes.svg"
   inkscape:version="0.92.5 (2060ec1f9f, 2020-04-08)"><metadata
   id="metadata1050"><rdf:RDF><cc:Work
       rdf:about=""><dc:format>image/svg+xml</dc:format><dc:type
         rdf:resource="http://purl.org/dc/dcmitype/StillImage" /><dc:title></dc:title></cc:Work></rdf:RDF></metadata><defs
   id="defs1048" /><sodipodi:namedview
   pagecolor="#ffffff"
   bordercolor="#666666"
   borderopacity="1"
   objecttolerance="10"
   gridtolerance="10"
   guidetolerance="10"
   inkscape:pageopacity="0"
   inkscape:pageshadow="2"
   inkscape:window-width="1920"
   inkscape:window-height="948"
   id="namedview1046"
   showgrid="false"
   inkscape:zoom="1.18"
   inkscape:cx="100"
   inkscape:cy="100"
   inkscape:window-x="0"
   inkscape:window-y="27"
   inkscape:window-maximized="1"
   inkscape:current-layer="Layer_1" />


<path
   style="fill:#007ea0;stroke-width:0.99999994"
   inkscape:connector-curvature="0"
   d="m 198.10899,99.999996 c 0,54.187994 -43.92597,98.109014 -98.10897,98.109014 -54.183005,0 -98.109015,-43.92102 -98.109015,-98.109014 0,-54.183002 43.926993,-98.109004 98.109015,-98.109004 54.18398,-9.98e-4 98.10897,43.926002 98.10897,98.109004 z"
   id="path815"
   inkscape:export-xdpi="96"
   inkscape:export-ydpi="96" /><g
   id="g974"
   transform="matrix(0.16827001,0,0,0.16827001,56.922877,56.922877)"
   style="fill:#ffffff"
   inkscape:export-xdpi="96"
   inkscape:export-ydpi="96"><g
     id="g908"
     style="fill:#ffffff"><g
       id="g906"
       style="fill:#ffffff"><path
         id="path904"
         d="m 512,304 c 0,-12.821 -5.099,-24.768 -13.888,-33.579 9.963,-10.901 15.04,-25.515 13.653,-40.725 -2.496,-27.115 -26.923,-48.363 -55.637,-48.363 H 324.352 c 6.528,-19.819 16.981,-56.149 16.981,-85.333 0,-46.272 -39.317,-85.333 -64,-85.333 -22.144,0 -37.995,12.48 -38.656,12.992 -2.539,2.027 -4.011,5.099 -4.011,8.341 v 72.341 l -61.461,133.099 -2.539,1.301 v -4.075 c 0,-5.888 -4.779,-10.667 -10.667,-10.667 H 53.333 C 23.915,224 0,247.915 0,277.333 V 448 c 0,29.419 23.915,53.333 53.333,53.333 h 64 c 23.061,0 42.773,-14.72 50.197,-35.264 C 185.28,475.2 209.173,480 224,480 h 195.819 c 23.232,0 43.563,-15.659 48.341,-37.248 2.453,-11.136 1.024,-22.336 -3.84,-32.064 15.744,-7.915 26.347,-24.192 26.347,-42.688 0,-7.552 -1.728,-14.784 -4.992,-21.312 C 501.419,338.752 512,322.496 512,304 Z m -44.992,26.325 c -4.117,0.491 -7.595,3.285 -8.917,7.232 -1.301,3.947 -0.213,8.277 2.816,11.136 5.419,5.099 8.427,11.968 8.427,19.307 0,13.461 -10.176,24.768 -23.637,26.325 -4.117,0.491 -7.595,3.285 -8.917,7.232 -1.301,3.947 -0.213,8.277 2.816,11.136 7.019,6.613 9.835,15.893 7.723,25.451 -2.624,11.904 -14.187,20.523 -27.499,20.523 H 224 c -17.323,0 -46.379,-8.128 -56.448,-18.219 -3.051,-3.029 -7.659,-3.925 -11.627,-2.304 -3.989,1.643 -6.592,5.547 -6.592,9.856 0,17.643 -14.357,32 -32,32 h -64 c -17.643,0 -32,-14.357 -32,-32 V 277.333 c 0,-17.643 14.357,-32 32,-32 h 96 V 256 c 0,3.691 1.92,7.125 5.077,9.088 3.115,1.877 7.04,2.069 10.368,0.448 l 21.333,-10.667 c 2.155,-1.067 3.883,-2.859 4.907,-5.056 l 64,-138.667 c 0.64,-1.408 0.981,-2.944 0.981,-4.48 V 37.781 C 260.437,35.328 268.139,32 277.333,32 289.024,32 320,61.056 320,96 c 0,37.547 -20.437,91.669 -20.629,92.203 -1.237,3.264 -0.811,6.955 1.173,9.856 2.005,2.88 5.291,4.608 8.789,4.608 h 146.795 c 17.792,0 32.896,12.736 34.389,28.992 1.131,12.16 -4.715,23.723 -15.189,30.187 -3.264,2.005 -5.205,5.632 -5.056,9.493 0.149,3.861 2.368,7.317 5.781,9.088 9.024,4.587 14.613,13.632 14.613,23.573 10e-4,13.461 -10.175,24.768 -23.658,26.325 z"
         inkscape:connector-curvature="0"
         style="fill:#ffffff" /></g></g><g
     id="g914"
     style="fill:#ffffff"><g
       id="g912"
       style="fill:#ffffff"><path
         id="path910"
         d="m 160,245.333 c -5.888,0 -10.667,4.779 -10.667,10.667 v 192 c 0,5.888 4.779,10.667 10.667,10.667 5.888,0 10.667,-4.779 10.667,-10.667 V 256 c 0,-5.888 -4.779,-10.667 -10.667,-10.667 z"
         inkscape:connector-curvature="0"
         style="fill:#ffffff" /></g></g><g
     id="g916"
     style="fill:#ffffff" /><g
     id="g918"
     style="fill:#ffffff" /><g
     id="g920"
     style="fill:#ffffff" /><g
     id="g922"
     style="fill:#ffffff" /><g
     id="g924"
     style="fill:#ffffff" /><g
     id="g926"
     style="fill:#ffffff" /><g
     id="g928"
     style="fill:#ffffff" /><g
     id="g930"
     style="fill:#ffffff" /><g
     id="g932"
     style="fill:#ffffff" /><g
     id="g934"
     style="fill:#ffffff" /><g
     id="g936"
     style="fill:#ffffff" /><g
     id="g938"
     style="fill:#ffffff" /><g
     id="g940"
     style="fill:#ffffff" /><g
     id="g942"
     style="fill:#ffffff" /><g
     id="g944"
     style="fill:#ffffff" /></g></svg>